<svg width="20" height="20" viewBox="0 0 20 20" fill="none" xmlns="http://www.w3.org/2000/svg">
<path d="M8.33333 1.66676V5.55044C8.33333 5.73142 8.33333 5.8219 8.30575 5.89389C8.27974 5.96179 8.24529 6.01109 8.19048 6.05888C8.13238 6.10954 8.03827 6.14401 7.85006 6.21296C5.45743 7.08947 3.75 9.38702 3.75 12.0834C3.75 15.5351 6.54822 18.3334 10 18.3334C13.4518 18.3334 16.25 15.5351 16.25 12.0834C16.25 9.38702 14.5426 7.08947 12.1499 6.21296C11.9617 6.14401 11.8676 6.10954 11.8095 6.05888C11.7547 6.01109 11.7203 5.96179 11.6942 5.89389C11.6667 5.8219 11.6667 5.73142 11.6667 5.55044V1.66676M7.08333 1.66669H12.9167" stroke="#101828" stroke-width="1.33" stroke-linecap="round" stroke-linejoin="round"/>
</svg>
