<svg width="20" height="20" viewBox="0 0 20 20" fill="none" xmlns="http://www.w3.org/2000/svg">
<path d="M7.7952 17.5C8.38281 18.0187 9.15468 18.3334 10.0001 18.3334C10.8454 18.3334 11.6173 18.0187 12.2049 17.5M15.0001 6.66669V1.66669M12.5001 4.16669H17.5001M10.8334 1.7366C10.5598 1.69036 10.2812 1.66669 10.0001 1.66669C8.67397 1.66669 7.4022 2.19347 6.46452 3.13115C5.52684 4.06883 5.00006 5.3406 5.00006 6.66669C5.00006 9.24184 4.35045 11.005 3.62478 12.1712C3.01267 13.1549 2.7066 13.6468 2.71783 13.784C2.73025 13.9359 2.76244 13.9939 2.88487 14.0847C2.99544 14.1667 3.49388 14.1667 4.49077 14.1667H15.5093C16.5062 14.1667 17.0046 14.1667 17.1152 14.0847C17.2376 13.9939 17.2698 13.9359 17.2822 13.784C17.2934 13.6468 16.9874 13.1548 16.3752 12.171C15.9652 11.512 15.5794 10.6624 15.3215 9.58335" stroke="#344054" stroke-width="1.67" stroke-linecap="round" stroke-linejoin="round"/>
</svg>
