<svg width="16" height="16" viewBox="0 0 16 16" fill="none" xmlns="http://www.w3.org/2000/svg">
<g clip-path="url(#clip0_451_11848)">
<path d="M8 -0.125005C9.60875 -0.128873 9.60875 -0.128873 11.25 -0.132818C14 -5.33834e-06 14 -5.36442e-06 16 0.999995C16 4.29999 16 7.59999 16 11C14.02 11.66 12.04 12.32 10 13C10 13.99 10 14.98 10 16C9.01 16 8.02 16 7 16C7 15.34 7 14.68 7 14C6.34 14 5.68 14 5 14C5 13.34 5 12.68 5 12C3.35 11.67 1.7 11.34 0 11C0 7.69999 0 4.39999 0 0.999995C2.73078 -0.365395 4.9556 -0.132324 8 -0.125005Z" fill="#12A0CF"/>
<path d="M8 -0.1875C9.0725 -0.20168 10.145 -0.215859 11.25 -0.230469C14 0 14 0 16 2C12.9851 3.00497 10.9582 3.10335 7.8125 3.0625C6.91145 3.05348 6.01039 3.04445 5.08203 3.03516C4.39496 3.02355 3.70789 3.01195 3 3C3.02063 3.94875 3.04125 4.8975 3.0625 5.875C3 9 3 9 2 11C1.34 11 0.68 11 0 11C0 7.7 0 4.4 0 1C2.72542 -0.362711 4.96087 -0.169236 8 -0.1875Z" fill="#8BB2D8"/>
<path d="M3 3C6.3 3 9.6 3 13 3C13 4.98 13 6.96 13 9C9.7 9 6.4 9 3 9C3 7.02 3 5.04 3 3Z" fill="#0841A0"/>
</g>
<defs>
<clipPath id="clip0_451_11848">
<rect width="16" height="16" fill="white"/>
</clipPath>
</defs>
</svg>
