<svg width="16" height="16" viewBox="0 0 16 16" fill="none" xmlns="http://www.w3.org/2000/svg">
<g clip-path="url(#clip0_451_11826)">
<path d="M0 0C5.28 0 10.56 0 16 0C16 5.28 16 10.56 16 16C10.72 16 5.44 16 0 16C0 10.72 0 5.44 0 0Z" fill="#124878"/>
<path d="M15 1C15.33 1 15.66 1 16 1C16 5.95 16 10.9 16 16C12.7 15.67 9.4 15.34 6 15C6.37125 14.0925 6.7425 13.185 7.125 12.25C8.30359 9.11903 8.30359 9.11903 7.125 6.625C6.75375 6.08875 6.3825 5.5525 6 5C6.92813 5.0825 7.85625 5.165 8.8125 5.25C12.0906 5.35968 12.0906 5.35968 13.8125 3C14.2044 2.34 14.5962 1.68 15 1Z" fill="#F3BB14"/>
<path d="M0 0C2.64 0 5.28 0 8 0C7.01 0.897187 7.01 0.897187 6 1.8125C3.09546 6.44162 3.66413 10.6727 4 16C2.68 16 1.36 16 0 16C0 10.72 0 5.44 0 0Z" fill="#F2B01E"/>
<path d="M8 0C10.64 0 13.28 0 16 0C14.02 2.97 14.02 2.97 12 6C10.68 5.67 9.36 5.34 8 5C8.66 5 9.32 5 10 5C10 3.68 10 2.36 10 1C9.34 0.67 8.68 0.34 8 0Z" fill="#17426B"/>
<path d="M0 6C0.99 6.33 1.98 6.66 3 7C3.33 9.97 3.66 12.94 4 16C2.68 16 1.36 16 0 16C0 12.7 0 9.4 0 6Z" fill="#D9A130"/>
<path d="M3 13C4.48008 13.1136 5.9591 13.2412 7.4375 13.375C8.26121 13.4446 9.08492 13.5142 9.93359 13.5859C10.9565 13.7909 10.9565 13.7909 12 14C12.33 14.66 12.66 15.32 13 16C10.03 16 7.06 16 4 16C3.67 15.01 3.34 14.02 3 13Z" fill="#355A73"/>
<path d="M14 5C14.33 5 14.66 5 15 5C15 8.3 15 11.6 15 15C13.35 14.67 11.7 14.34 10 14C10.66 13.67 11.32 13.34 12 13C12 12.34 12 11.68 12 11C12.66 11 13.32 11 14 11C14 9.02 14 7.04 14 5Z" fill="#F9B315"/>
</g>
<defs>
<clipPath id="clip0_451_11826">
<rect width="16" height="16" fill="white"/>
</clipPath>
</defs>
</svg>
