<svg width="83" height="22" viewBox="0 0 83 22" fill="none" xmlns="http://www.w3.org/2000/svg">
<path d="M6.10937 6.39375H4.05798V15.6049H1.74513V6.39375H0.437866V4.52336H1.74513V3.73901C1.74513 2.46526 2.08032 1.54013 2.75072 0.963589C3.43451 0.373646 4.50043 0.0786743 5.94848 0.0786743V1.98929C5.25127 1.98929 4.76189 2.12337 4.48032 2.39152C4.19876 2.64627 4.05798 3.09543 4.05798 3.73901V4.52336H6.10937V6.39375Z" fill="#101828"/>
<path d="M12.1435 15.7859C11.0977 15.7859 10.1525 15.5513 9.30777 15.082C8.46307 14.5993 7.79939 13.9289 7.3167 13.0708C6.83402 12.1993 6.59268 11.1938 6.59268 10.0541C6.59268 8.92783 6.84073 7.92895 7.33682 7.05744C7.83291 6.18593 8.51 5.51554 9.3681 5.04627C10.2262 4.577 11.1849 4.34236 12.2441 4.34236C13.3033 4.34236 14.262 4.577 15.1201 5.04627C15.9782 5.51554 16.6553 6.18593 17.1513 7.05744C17.6474 7.92895 17.8955 8.92783 17.8955 10.0541C17.8955 11.1803 17.6407 12.1792 17.1312 13.0507C16.6217 13.9222 15.9245 14.5993 15.0396 15.082C14.1681 15.5513 13.2027 15.7859 12.1435 15.7859ZM12.1435 13.7949C12.7335 13.7949 13.2832 13.6541 13.7927 13.3725C14.3156 13.091 14.7379 12.6686 15.0597 12.1055C15.3815 11.5424 15.5424 10.8586 15.5424 10.0541C15.5424 9.24962 15.3882 8.57252 15.0798 8.0228C14.7714 7.45967 14.3625 7.03733 13.853 6.75577C13.3435 6.4742 12.7938 6.33342 12.2039 6.33342C11.6139 6.33342 11.0642 6.4742 10.5547 6.75577C10.0586 7.03733 9.66307 7.45967 9.3681 8.0228C9.07313 8.57252 8.92564 9.24962 8.92564 10.0541C8.92564 11.2474 9.22732 12.1725 9.83067 12.8295C10.4474 13.4731 11.2184 13.7949 12.1435 13.7949Z" fill="#101828"/>
<path d="M21.6502 6.1323C21.9854 5.56917 22.4279 5.13342 22.9776 4.82504C23.5407 4.50325 24.2044 4.34236 24.9687 4.34236V6.71554H24.3854C23.4871 6.71554 22.8033 6.94347 22.334 7.39934C21.8782 7.85521 21.6502 8.64627 21.6502 9.77252V15.6049H19.3575V4.52336H21.6502V6.1323Z" fill="#101828"/>
<path d="M36.664 9.79263C36.664 10.2083 36.6372 10.5837 36.5836 10.9189H28.1165C28.1836 11.8038 28.5121 12.5144 29.102 13.0507C29.692 13.587 30.416 13.8552 31.2741 13.8552C32.5076 13.8552 33.3791 13.339 33.8886 12.3066H36.3623C36.0271 13.3256 35.4171 14.1636 34.5322 14.8206C33.6607 15.4641 32.5746 15.7859 31.2741 15.7859C30.2149 15.7859 29.2629 15.5513 28.4182 15.082C27.5869 14.5993 26.9299 13.9289 26.4473 13.0708C25.978 12.1993 25.7434 11.1938 25.7434 10.0541C25.7434 8.91442 25.9713 7.91554 26.4272 7.05744C26.8964 6.18593 27.5467 5.51554 28.378 5.04627C29.2227 4.577 30.188 4.34236 31.2741 4.34236C32.3199 4.34236 33.2517 4.57029 34.0696 5.02616C34.8875 5.48202 35.5244 6.1256 35.9802 6.95688C36.4361 7.77476 36.664 8.72001 36.664 9.79263ZM34.2707 9.06861C34.2573 8.22392 33.9556 7.54683 33.3657 7.03733C32.7758 6.52783 32.045 6.27308 31.1735 6.27308C30.3825 6.27308 29.7054 6.52783 29.1422 7.03733C28.5791 7.53342 28.2439 8.21051 28.1366 9.06861H34.2707Z" fill="#101828"/>
<path d="M42.3741 15.7859C41.5026 15.7859 40.7182 15.6317 40.021 15.3234C39.3372 15.0016 38.7942 14.5725 38.392 14.0362C37.9897 13.4865 37.7752 12.8764 37.7484 12.206H40.1216C40.1618 12.6753 40.383 13.0708 40.7853 13.3926C41.2009 13.701 41.7171 13.8552 42.3339 13.8552C42.9774 13.8552 43.4735 13.7345 43.8221 13.4932C44.1841 13.2384 44.3651 12.9167 44.3651 12.5278C44.3651 12.1122 44.164 11.8038 43.7618 11.6027C43.373 11.4016 42.7495 11.1803 41.8914 10.939C41.0601 10.7111 40.383 10.4898 39.8601 10.2753C39.3372 10.0608 38.8814 9.7323 38.4925 9.28984C38.1171 8.84738 37.9294 8.26414 37.9294 7.54012C37.9294 6.95018 38.1037 6.41387 38.4523 5.93118C38.8009 5.4351 39.297 5.04627 39.9406 4.7647C40.5975 4.48314 41.3484 4.34236 42.1931 4.34236C43.4534 4.34236 44.4657 4.66415 45.23 5.30772C46.0076 5.93789 46.4232 6.80269 46.4769 7.90213H44.1841C44.1439 7.40604 43.9428 7.01051 43.5808 6.71554C43.2188 6.42057 42.7294 6.27308 42.1126 6.27308C41.5093 6.27308 41.0467 6.38705 40.7249 6.61498C40.4031 6.84292 40.2422 7.14459 40.2422 7.52001C40.2422 7.81498 40.3495 8.06303 40.564 8.26414C40.7786 8.46526 41.04 8.62615 41.3484 8.74683C41.6568 8.85409 42.1126 8.99487 42.716 9.16917C43.5205 9.3837 44.1774 9.60492 44.6869 9.83286C45.2098 10.0474 45.659 10.3692 46.0344 10.7982C46.4098 11.2273 46.6043 11.7971 46.6177 12.5077C46.6177 13.1379 46.4434 13.701 46.0948 14.1971C45.7462 14.6932 45.2501 15.082 44.6065 15.3636C43.9763 15.6451 43.2322 15.7859 42.3741 15.7859Z" fill="#101828"/>
<path d="M49.457 3.05521C49.0414 3.05521 48.6928 2.91443 48.4112 2.63286C48.1297 2.3513 47.9889 2.0027 47.9889 1.58705C47.9889 1.17141 48.1297 0.822808 48.4112 0.541244C48.6928 0.259679 49.0414 0.118898 49.457 0.118898C49.8593 0.118898 50.2012 0.259679 50.4827 0.541244C50.7643 0.822808 50.9051 1.17141 50.9051 1.58705C50.9051 2.0027 50.7643 2.3513 50.4827 2.63286C50.2012 2.91443 49.8593 3.05521 49.457 3.05521ZM50.5833 4.52336V15.6049H48.2905V4.52336H50.5833Z" fill="#101828"/>
<path d="M57.2538 4.34236C58.1119 4.34236 58.8694 4.51666 59.5264 4.86526C60.1968 5.20046 60.7197 5.6228 61.0951 6.1323V4.52336H63.408V15.7859C63.408 16.8049 63.1934 17.7099 62.7644 18.501C62.3353 19.3055 61.7119 19.9356 60.894 20.3915C60.0895 20.8474 59.1242 21.0753 57.9979 21.0753C56.4962 21.0753 55.2493 20.72 54.2571 20.0094C53.265 19.3122 52.7018 18.3602 52.5677 17.1535H54.8404C55.0147 17.7301 55.3834 18.1926 55.9465 18.5412C56.5231 18.9032 57.2069 19.0842 57.9979 19.0842C58.9231 19.0842 59.6672 18.8027 60.2303 18.2396C60.8069 17.6764 61.0951 16.8586 61.0951 15.7859V13.9356C60.7063 14.4586 60.1767 14.901 59.5063 15.263C58.8493 15.6116 58.0985 15.7859 57.2538 15.7859C56.2884 15.7859 55.4035 15.5446 54.599 15.0619C53.808 14.5658 53.1778 13.882 52.7085 13.0105C52.2527 12.1256 52.0247 11.1267 52.0247 10.0139C52.0247 8.90102 52.2527 7.91554 52.7085 7.05744C53.1778 6.19934 53.808 5.53565 54.599 5.06638C55.4035 4.5837 56.2884 4.34236 57.2538 4.34236ZM61.0951 10.0541C61.0951 9.28984 60.9342 8.62616 60.6124 8.06303C60.3041 7.4999 59.8951 7.07085 59.3856 6.77588C58.8761 6.4809 58.3264 6.33342 57.7365 6.33342C57.1465 6.33342 56.5968 6.4809 56.0873 6.77588C55.5778 7.05744 55.1622 7.47979 54.8404 8.04292C54.532 8.59264 54.3778 9.24962 54.3778 10.0139C54.3778 10.7781 54.532 11.4485 54.8404 12.025C55.1622 12.6016 55.5778 13.044 56.0873 13.3524C56.6102 13.6474 57.1599 13.7949 57.7365 13.7949C58.3264 13.7949 58.8761 13.6474 59.3856 13.3524C59.8951 13.0574 60.3041 12.6284 60.6124 12.0653C60.9342 11.4887 61.0951 10.8183 61.0951 10.0541Z" fill="#101828"/>
<path d="M70.8749 4.34236C71.7196 4.34236 72.4705 4.52336 73.1275 4.88537C73.7978 5.24739 74.3207 5.7837 74.6962 6.49431C75.085 7.20493 75.2794 8.06303 75.2794 9.06861V15.6049H73.0068V9.41051C73.0068 8.41833 72.7587 7.66079 72.2627 7.13789C71.7666 6.60157 71.0895 6.33342 70.2314 6.33342C69.3733 6.33342 68.6895 6.60157 68.18 7.13789C67.6839 7.66079 67.4358 8.41833 67.4358 9.41051V15.6049H65.1431V0.72225H67.4358V5.81051C67.8247 5.34124 68.314 4.97923 68.904 4.72448C69.5073 4.46973 70.1643 4.34236 70.8749 4.34236Z" fill="#101828"/>
<path d="M80.0743 6.39375V12.5278C80.0743 12.9435 80.1682 13.2451 80.3559 13.4329C80.557 13.6072 80.8922 13.6943 81.3615 13.6943H82.7693V15.6049H80.9592C79.9268 15.6049 79.1358 15.3636 78.5861 14.8809C78.0363 14.3982 77.7615 13.6139 77.7615 12.5278V6.39375H76.4542V4.52336H77.7615V1.76806H80.0743V4.52336H82.7693V6.39375H80.0743Z" fill="#101828"/>
</svg>
