<svg width="83" height="22" viewBox="0 0 83 22" fill="none" xmlns="http://www.w3.org/2000/svg">
<path d="M6.1095 6.39375H4.0581V15.6049H1.74525V6.39375H0.437988V4.52336H1.74525V3.73901C1.74525 2.46526 2.08045 1.54013 2.75084 0.963589C3.43464 0.373646 4.50056 0.0786743 5.9486 0.0786743V1.98929C5.25139 1.98929 4.76201 2.12337 4.48045 2.39152C4.19888 2.64627 4.0581 3.09543 4.0581 3.73901V4.52336H6.1095V6.39375Z" fill="#101828"/>
<path d="M12.1436 15.7859C11.0978 15.7859 10.1526 15.5513 9.30789 15.082C8.46319 14.5993 7.79951 13.9289 7.31683 13.0708C6.83414 12.1993 6.5928 11.1938 6.5928 10.0541C6.5928 8.92783 6.84085 7.92895 7.33694 7.05744C7.83303 6.18593 8.51012 5.51554 9.36822 5.04627C10.2263 4.577 11.185 4.34236 12.2442 4.34236C13.3034 4.34236 14.2621 4.577 15.1202 5.04627C15.9783 5.51554 16.6554 6.18593 17.1515 7.05744C17.6476 7.92895 17.8956 8.92783 17.8956 10.0541C17.8956 11.1803 17.6408 12.1792 17.1313 13.0507C16.6219 13.9222 15.9246 14.5993 15.0397 15.082C14.1682 15.5513 13.2029 15.7859 12.1436 15.7859ZM12.1436 13.7949C12.7336 13.7949 13.2833 13.6541 13.7928 13.3725C14.3157 13.091 14.7381 12.6686 15.0598 12.1055C15.3816 11.5424 15.5425 10.8586 15.5425 10.0541C15.5425 9.24962 15.3883 8.57252 15.08 8.0228C14.7716 7.45967 14.3626 7.03733 13.8531 6.75577C13.3436 6.4742 12.7939 6.33342 12.204 6.33342C11.614 6.33342 11.0643 6.4742 10.5548 6.75577C10.0587 7.03733 9.66319 7.45967 9.36822 8.0228C9.07325 8.57252 8.92576 9.24962 8.92576 10.0541C8.92576 11.2474 9.22744 12.1725 9.83079 12.8295C10.4476 13.4731 11.2185 13.7949 12.1436 13.7949Z" fill="#101828"/>
<path d="M21.6504 6.1323C21.9856 5.56917 22.428 5.13342 22.9777 4.82504C23.5409 4.50325 24.2045 4.34236 24.9688 4.34236V6.71554H24.3856C23.4872 6.71554 22.8034 6.94347 22.3342 7.39934C21.8783 7.85521 21.6504 8.64627 21.6504 9.77252V15.6049H19.3576V4.52336H21.6504V6.1323Z" fill="#101828"/>
<path d="M36.6641 9.79263C36.6641 10.2083 36.6373 10.5837 36.5837 10.9189H28.1167C28.1837 11.8038 28.5122 12.5144 29.1021 13.0507C29.6921 13.587 30.4161 13.8552 31.2742 13.8552C32.5077 13.8552 33.3792 13.339 33.8887 12.3066H36.3625C36.0273 13.3256 35.4172 14.1636 34.5323 14.8206C33.6608 15.4641 32.5748 15.7859 31.2742 15.7859C30.215 15.7859 29.263 15.5513 28.4183 15.082C27.5871 14.5993 26.9301 13.9289 26.4474 13.0708C25.9781 12.1993 25.7435 11.1938 25.7435 10.0541C25.7435 8.91442 25.9714 7.91554 26.4273 7.05744C26.8965 6.18593 27.5468 5.51554 28.3781 5.04627C29.2228 4.577 30.1882 4.34236 31.2742 4.34236C32.32 4.34236 33.2519 4.57029 34.0697 5.02616C34.8876 5.48202 35.5245 6.1256 35.9803 6.95688C36.4362 7.77476 36.6641 8.72001 36.6641 9.79263ZM34.2708 9.06861C34.2574 8.22392 33.9558 7.54683 33.3658 7.03733C32.7759 6.52783 32.0451 6.27308 31.1736 6.27308C30.3826 6.27308 29.7055 6.52783 29.1424 7.03733C28.5792 7.53342 28.244 8.21051 28.1368 9.06861H34.2708Z" fill="#101828"/>
<path d="M42.3742 15.7859C41.5027 15.7859 40.7183 15.6317 40.0211 15.3234C39.3373 15.0016 38.7943 14.5725 38.3921 14.0362C37.9899 13.4865 37.7753 12.8764 37.7485 12.206H40.1217C40.1619 12.6753 40.3831 13.0708 40.7854 13.3926C41.201 13.701 41.7172 13.8552 42.334 13.8552C42.9776 13.8552 43.4736 13.7345 43.8223 13.4932C44.1843 13.2384 44.3653 12.9167 44.3653 12.5278C44.3653 12.1122 44.1642 11.8038 43.7619 11.6027C43.3731 11.4016 42.7496 11.1803 41.8915 10.939C41.0602 10.7111 40.3831 10.4898 39.8602 10.2753C39.3373 10.0608 38.8815 9.7323 38.4926 9.28984C38.1172 8.84738 37.9295 8.26414 37.9295 7.54012C37.9295 6.95018 38.1038 6.41387 38.4524 5.93118C38.801 5.4351 39.2971 5.04627 39.9407 4.7647C40.5977 4.48314 41.3485 4.34236 42.1932 4.34236C43.4535 4.34236 44.4658 4.66415 45.2301 5.30772C46.0077 5.93789 46.4234 6.80269 46.477 7.90213H44.1843C44.144 7.40604 43.9429 7.01051 43.5809 6.71554C43.2189 6.42057 42.7295 6.27308 42.1128 6.27308C41.5094 6.27308 41.0468 6.38705 40.725 6.61498C40.4033 6.84292 40.2424 7.14459 40.2424 7.52001C40.2424 7.81498 40.3496 8.06303 40.5642 8.26414C40.7787 8.46526 41.0401 8.62615 41.3485 8.74683C41.6569 8.85409 42.1128 8.99487 42.7161 9.16917C43.5206 9.3837 44.1776 9.60492 44.6871 9.83286C45.21 10.0474 45.6591 10.3692 46.0345 10.7982C46.41 11.2273 46.6044 11.7971 46.6178 12.5077C46.6178 13.1379 46.4435 13.701 46.0949 14.1971C45.7463 14.6932 45.2502 15.082 44.6066 15.3636C43.9764 15.6451 43.2323 15.7859 42.3742 15.7859Z" fill="#101828"/>
<path d="M49.4572 3.05521C49.0415 3.05521 48.6929 2.91443 48.4113 2.63286C48.1298 2.3513 47.989 2.0027 47.989 1.58705C47.989 1.17141 48.1298 0.822808 48.4113 0.541244C48.6929 0.259679 49.0415 0.118898 49.4572 0.118898C49.8594 0.118898 50.2013 0.259679 50.4828 0.541244C50.7644 0.822808 50.9052 1.17141 50.9052 1.58705C50.9052 2.0027 50.7644 2.3513 50.4828 2.63286C50.2013 2.91443 49.8594 3.05521 49.4572 3.05521ZM50.5834 4.52336V15.6049H48.2907V4.52336H50.5834Z" fill="#101828"/>
<path d="M57.2539 4.34236C58.112 4.34236 58.8695 4.51666 59.5265 4.86526C60.1969 5.20046 60.7198 5.6228 61.0952 6.1323V4.52336H63.4081V15.7859C63.4081 16.8049 63.1936 17.7099 62.7645 18.501C62.3355 19.3055 61.712 19.9356 60.8941 20.3915C60.0897 20.8474 59.1243 21.0753 57.998 21.0753C56.4964 21.0753 55.2494 20.72 54.2573 20.0094C53.2651 19.3122 52.7019 18.3602 52.5679 17.1535H54.8405C55.0148 17.7301 55.3835 18.1926 55.9466 18.5412C56.5232 18.9032 57.207 19.0842 57.998 19.0842C58.9232 19.0842 59.6673 18.8027 60.2304 18.2396C60.807 17.6764 61.0952 16.8586 61.0952 15.7859V13.9356C60.7064 14.4586 60.1768 14.901 59.5064 15.263C58.8494 15.6116 58.0986 15.7859 57.2539 15.7859C56.2885 15.7859 55.4036 15.5446 54.5992 15.0619C53.8081 14.5658 53.1779 13.882 52.7086 13.0105C52.2528 12.1256 52.0249 11.1267 52.0249 10.0139C52.0249 8.90102 52.2528 7.91554 52.7086 7.05744C53.1779 6.19934 53.8081 5.53565 54.5992 5.06638C55.4036 4.5837 56.2885 4.34236 57.2539 4.34236ZM61.0952 10.0541C61.0952 9.28984 60.9343 8.62616 60.6126 8.06303C60.3042 7.4999 59.8952 7.07085 59.3857 6.77588C58.8762 6.4809 58.3265 6.33342 57.7366 6.33342C57.1466 6.33342 56.5969 6.4809 56.0874 6.77588C55.5779 7.05744 55.1623 7.47979 54.8405 8.04292C54.5321 8.59264 54.3779 9.24962 54.3779 10.0139C54.3779 10.7781 54.5321 11.4485 54.8405 12.025C55.1623 12.6016 55.5779 13.044 56.0874 13.3524C56.6103 13.6474 57.16 13.7949 57.7366 13.7949C58.3265 13.7949 58.8762 13.6474 59.3857 13.3524C59.8952 13.0574 60.3042 12.6284 60.6126 12.0653C60.9343 11.4887 61.0952 10.8183 61.0952 10.0541Z" fill="#101828"/>
<path d="M70.8751 4.34236C71.7198 4.34236 72.4706 4.52336 73.1276 4.88537C73.798 5.24739 74.3209 5.7837 74.6963 6.49431C75.0851 7.20493 75.2795 8.06303 75.2795 9.06861V15.6049H73.0069V9.41051C73.0069 8.41833 72.7589 7.66079 72.2628 7.13789C71.7667 6.60157 71.0896 6.33342 70.2315 6.33342C69.3734 6.33342 68.6896 6.60157 68.1801 7.13789C67.684 7.66079 67.436 8.41833 67.436 9.41051V15.6049H65.1432V0.72225H67.436V5.81051C67.8248 5.34124 68.3142 4.97923 68.9041 4.72448C69.5075 4.46973 70.1644 4.34236 70.8751 4.34236Z" fill="#101828"/>
<path d="M80.0745 6.39375V12.5278C80.0745 12.9435 80.1683 13.2451 80.356 13.4329C80.5571 13.6072 80.8923 13.6943 81.3616 13.6943H82.7694V15.6049H80.9594C79.927 15.6049 79.1359 15.3636 78.5862 14.8809C78.0365 14.3982 77.7616 13.6139 77.7616 12.5278V6.39375H76.4543V4.52336H77.7616V1.76806H80.0745V4.52336H82.7694V6.39375H80.0745Z" fill="#101828"/>
</svg>
