<svg width="83" height="22" viewBox="0 0 83 22" fill="none" xmlns="http://www.w3.org/2000/svg">
<path d="M6.10901 6.39375H4.05761V15.6049H1.74476V6.39375H0.4375V4.52336H1.74476V3.73901C1.74476 2.46526 2.07996 1.54013 2.75035 0.963589C3.43415 0.373646 4.50007 0.0786743 5.94811 0.0786743V1.98929C5.25091 1.98929 4.76152 2.12337 4.47996 2.39152C4.19839 2.64627 4.05761 3.09543 4.05761 3.73901V4.52336H6.10901V6.39375Z" fill="#101828"/>
<path d="M12.1432 15.7859C11.0973 15.7859 10.1521 15.5513 9.3074 15.082C8.46271 14.5993 7.79902 13.9289 7.31634 13.0708C6.83366 12.1993 6.59232 11.1938 6.59232 10.0541C6.59232 8.92783 6.84036 7.92895 7.33645 7.05744C7.83254 6.18593 8.50963 5.51554 9.36773 5.04627C10.2258 4.577 11.1845 4.34236 12.2437 4.34236C13.3029 4.34236 14.2616 4.577 15.1197 5.04627C15.9778 5.51554 16.6549 6.18593 17.151 7.05744C17.6471 7.92895 17.8951 8.92783 17.8951 10.0541C17.8951 11.1803 17.6404 12.1792 17.1309 13.0507C16.6214 13.9222 15.9242 14.5993 15.0392 15.082C14.1677 15.5513 13.2024 15.7859 12.1432 15.7859ZM12.1432 13.7949C12.7331 13.7949 13.2828 13.6541 13.7923 13.3725C14.3152 13.091 14.7376 12.6686 15.0594 12.1055C15.3811 11.5424 15.542 10.8586 15.542 10.0541C15.542 9.24962 15.3878 8.57252 15.0795 8.0228C14.7711 7.45967 14.3621 7.03733 13.8526 6.75577C13.3432 6.4742 12.7934 6.33342 12.2035 6.33342C11.6135 6.33342 11.0638 6.4742 10.5543 6.75577C10.0582 7.03733 9.66271 7.45967 9.36773 8.0228C9.07276 8.57252 8.92528 9.24962 8.92528 10.0541C8.92528 11.2474 9.22695 12.1725 9.8303 12.8295C10.4471 13.4731 11.218 13.7949 12.1432 13.7949Z" fill="#101828"/>
<path d="M21.6499 6.1323C21.9851 5.56917 22.4275 5.13342 22.9772 4.82504C23.5404 4.50325 24.2041 4.34236 24.9683 4.34236V6.71554H24.3851C23.4867 6.71554 22.8029 6.94347 22.3337 7.39934C21.8778 7.85521 21.6499 8.64627 21.6499 9.77252V15.6049H19.3571V4.52336H21.6499V6.1323Z" fill="#101828"/>
<path d="M36.6637 9.79263C36.6637 10.2083 36.6368 10.5837 36.5832 10.9189H28.1162C28.1832 11.8038 28.5117 12.5144 29.1016 13.0507C29.6916 13.587 30.4156 13.8552 31.2737 13.8552C32.5072 13.8552 33.3787 13.339 33.8882 12.3066H36.362C36.0268 13.3256 35.4167 14.1636 34.5318 14.8206C33.6603 15.4641 32.5743 15.7859 31.2737 15.7859C30.2145 15.7859 29.2625 15.5513 28.4178 15.082C27.5866 14.5993 26.9296 13.9289 26.4469 13.0708C25.9776 12.1993 25.743 11.1938 25.743 10.0541C25.743 8.91442 25.9709 7.91554 26.4268 7.05744C26.8961 6.18593 27.5463 5.51554 28.3776 5.04627C29.2223 4.577 30.1877 4.34236 31.2737 4.34236C32.3195 4.34236 33.2514 4.57029 34.0692 5.02616C34.8871 5.48202 35.524 6.1256 35.9799 6.95688C36.4357 7.77476 36.6637 8.72001 36.6637 9.79263ZM34.2704 9.06861C34.2569 8.22392 33.9553 7.54683 33.3653 7.03733C32.7754 6.52783 32.0447 6.27308 31.1732 6.27308C30.3821 6.27308 29.705 6.52783 29.1419 7.03733C28.5787 7.53342 28.2435 8.21051 28.1363 9.06861H34.2704Z" fill="#101828"/>
<path d="M42.3737 15.7859C41.5022 15.7859 40.7179 15.6317 40.0207 15.3234C39.3369 15.0016 38.7938 14.5725 38.3916 14.0362C37.9894 13.4865 37.7748 12.8764 37.748 12.206H40.1212C40.1614 12.6753 40.3827 13.0708 40.7849 13.3926C41.2005 13.701 41.7167 13.8552 42.3335 13.8552C42.9771 13.8552 43.4732 13.7345 43.8218 13.4932C44.1838 13.2384 44.3648 12.9167 44.3648 12.5278C44.3648 12.1122 44.1637 11.8038 43.7614 11.6027C43.3726 11.4016 42.7491 11.1803 41.891 10.939C41.0598 10.7111 40.3827 10.4898 39.8598 10.2753C39.3368 10.0608 38.881 9.7323 38.4922 9.28984C38.1167 8.84738 37.929 8.26414 37.929 7.54012C37.929 6.95018 38.1033 6.41387 38.4519 5.93118C38.8005 5.4351 39.2966 5.04627 39.9402 4.7647C40.5972 4.48314 41.348 4.34236 42.1927 4.34236C43.453 4.34236 44.4653 4.66415 45.2296 5.30772C46.0072 5.93789 46.4229 6.80269 46.4765 7.90213H44.1838C44.1435 7.40604 43.9424 7.01051 43.5804 6.71554C43.2184 6.42057 42.729 6.27308 42.1123 6.27308C41.5089 6.27308 41.0463 6.38705 40.7246 6.61498C40.4028 6.84292 40.2419 7.14459 40.2419 7.52001C40.2419 7.81498 40.3491 8.06303 40.5637 8.26414C40.7782 8.46526 41.0396 8.62615 41.348 8.74683C41.6564 8.85409 42.1123 8.99487 42.7156 9.16917C43.5201 9.3837 44.1771 9.60492 44.6866 9.83286C45.2095 10.0474 45.6586 10.3692 46.0341 10.7982C46.4095 11.2273 46.6039 11.7971 46.6173 12.5077C46.6173 13.1379 46.443 13.701 46.0944 14.1971C45.7458 14.6932 45.2497 15.082 44.6061 15.3636C43.976 15.6451 43.2318 15.7859 42.3737 15.7859Z" fill="#101828"/>
<path d="M49.4567 3.05521C49.041 3.05521 48.6924 2.91443 48.4109 2.63286C48.1293 2.3513 47.9885 2.0027 47.9885 1.58705C47.9885 1.17141 48.1293 0.822808 48.4109 0.541244C48.6924 0.259679 49.041 0.118898 49.4567 0.118898C49.8589 0.118898 50.2008 0.259679 50.4824 0.541244C50.7639 0.822808 50.9047 1.17141 50.9047 1.58705C50.9047 2.0027 50.7639 2.3513 50.4824 2.63286C50.2008 2.91443 49.8589 3.05521 49.4567 3.05521ZM50.5829 4.52336V15.6049H48.2902V4.52336H50.5829Z" fill="#101828"/>
<path d="M57.2534 4.34236C58.1115 4.34236 58.8691 4.51666 59.526 4.86526C60.1964 5.20046 60.7193 5.6228 61.0948 6.1323V4.52336H63.4076V15.7859C63.4076 16.8049 63.1931 17.7099 62.764 18.501C62.335 19.3055 61.7115 19.9356 60.8936 20.3915C60.0892 20.8474 59.1238 21.0753 57.9975 21.0753C56.4959 21.0753 55.2489 20.72 54.2568 20.0094C53.2646 19.3122 52.7015 18.3602 52.5674 17.1535H54.84C55.0143 17.7301 55.383 18.1926 55.9461 18.5412C56.5227 18.9032 57.2065 19.0842 57.9975 19.0842C58.9227 19.0842 59.6668 18.8027 60.23 18.2396C60.8065 17.6764 61.0948 16.8586 61.0948 15.7859V13.9356C60.7059 14.4586 60.1763 14.901 59.5059 15.263C58.8489 15.6116 58.0981 15.7859 57.2534 15.7859C56.2881 15.7859 55.4031 15.5446 54.5987 15.0619C53.8076 14.5658 53.1774 13.882 52.7082 13.0105C52.2523 12.1256 52.0244 11.1267 52.0244 10.0139C52.0244 8.90102 52.2523 7.91554 52.7082 7.05744C53.1774 6.19934 53.8076 5.53565 54.5987 5.06638C55.4031 4.5837 56.2881 4.34236 57.2534 4.34236ZM61.0948 10.0541C61.0948 9.28984 60.9339 8.62616 60.6121 8.06303C60.3037 7.4999 59.8948 7.07085 59.3853 6.77588C58.8758 6.4809 58.326 6.33342 57.7361 6.33342C57.1462 6.33342 56.5964 6.4809 56.0869 6.77588C55.5774 7.05744 55.1618 7.47979 54.84 8.04292C54.5316 8.59264 54.3774 9.24962 54.3774 10.0139C54.3774 10.7781 54.5316 11.4485 54.84 12.025C55.1618 12.6016 55.5774 13.044 56.0869 13.3524C56.6098 13.6474 57.1596 13.7949 57.7361 13.7949C58.326 13.7949 58.8758 13.6474 59.3853 13.3524C59.8948 13.0574 60.3037 12.6284 60.6121 12.0653C60.9339 11.4887 61.0948 10.8183 61.0948 10.0541Z" fill="#101828"/>
<path d="M70.8746 4.34236C71.7193 4.34236 72.4701 4.52336 73.1271 4.88537C73.7975 5.24739 74.3204 5.7837 74.6958 6.49431C75.0846 7.20493 75.279 8.06303 75.279 9.06861V15.6049H73.0064V9.41051C73.0064 8.41833 72.7584 7.66079 72.2623 7.13789C71.7662 6.60157 71.0891 6.33342 70.231 6.33342C69.3729 6.33342 68.6891 6.60157 68.1796 7.13789C67.6835 7.66079 67.4355 8.41833 67.4355 9.41051V15.6049H65.1427V0.72225H67.4355V5.81051C67.8243 5.34124 68.3137 4.97923 68.9036 4.72448C69.507 4.46973 70.164 4.34236 70.8746 4.34236Z" fill="#101828"/>
<path d="M80.074 6.39375V12.5278C80.074 12.9435 80.1678 13.2451 80.3555 13.4329C80.5566 13.6072 80.8918 13.6943 81.3611 13.6943H82.7689V15.6049H80.9589C79.9265 15.6049 79.1354 15.3636 78.5857 14.8809C78.036 14.3982 77.7611 13.6139 77.7611 12.5278V6.39375H76.4539V4.52336H77.7611V1.76806H80.074V4.52336H82.7689V6.39375H80.074Z" fill="#101828"/>
</svg>
