<svg width="24" height="14" viewBox="0 0 24 14" fill="none" xmlns="http://www.w3.org/2000/svg">
<rect width="24" height="12.0685" transform="translate(0 0.965759)" fill="#B4B4B4"/>
<path fill-rule="evenodd" clip-rule="evenodd" d="M0 5.41564C0 5.41564 7.10025 4.47676 7.30562 4.43764C7.6088 4.37896 7.89242 4.32028 8.13692 4.24204C8.70416 4.08556 9.24206 3.84107 9.71149 3.51833C10.1712 3.21515 10.5819 2.77505 10.9829 2.27627C11.2469 1.97309 11.511 1.57212 11.7848 1.16136V0.965759C11.4817 1.42542 11.1785 1.82639 10.8753 2.16869C10.4548 2.62835 10.044 3.00977 9.58435 3.30317C9.1247 3.60635 8.61614 3.82151 8.06846 3.95842C7.82396 4.0171 7.5599 4.07578 7.25672 4.1149C7.07091 4.13446 6.85575 4.17358 6.66993 4.19314C6.59169 4.23226 0.00977994 4.93642 0.00977994 4.93642V5.41564H0Z" fill="white"/>
<path fill-rule="evenodd" clip-rule="evenodd" d="M9.53548 4.21269C9.09539 4.47675 8.56727 4.67235 8.01959 4.78971C7.77509 4.84839 7.51103 4.88751 7.20786 4.90707C7.0416 4.92663 6.846 4.92663 6.67974 4.94619C6.58194 4.94619 6.49392 4.96575 6.39612 4.96575C4.21519 5.16135 2.05382 5.36673 0.0195923 5.58189V6.04154C2.07338 5.79704 4.25431 5.52321 6.41568 5.27871C6.51348 5.25915 6.6015 5.25915 6.6993 5.23959C6.86556 5.22003 7.06116 5.20047 7.22742 5.18091C7.53059 5.14179 7.81421 5.08311 8.05871 5.02443C8.64551 4.88751 9.18341 4.68213 9.65284 4.38873C10.1125 4.10511 10.5037 3.71391 10.9438 3.24448C11.2079 2.9413 11.511 2.52076 11.7947 2.12956V1.97308C11.4524 2.43274 11.1492 2.81416 10.8264 3.1369C10.4059 3.59656 9.9658 3.93885 9.53548 4.21269Z" fill="white"/>
<path fill-rule="evenodd" clip-rule="evenodd" d="M10.7873 4.09532C10.3472 4.4963 9.89731 4.81904 9.43765 5.03419C8.978 5.25913 8.489 5.41561 7.9022 5.51341C7.6577 5.55253 7.39364 5.59165 7.10024 5.61121L0 6.20779V6.66745L6.29829 5.98285L7.11002 5.88505C7.4132 5.84593 7.67726 5.80681 7.92176 5.76769C8.52812 5.65033 9.04645 5.48407 9.51589 5.22979C9.99511 4.98529 10.4645 4.57454 10.9046 4.154C11.2078 3.87038 11.4914 3.49874 11.7946 3.09776V2.94128C11.4523 3.40094 11.11 3.77258 10.7873 4.09532Z" fill="white"/>
<path fill-rule="evenodd" clip-rule="evenodd" d="M9.05623 6.51097C8.6357 6.73591 8.33252 6.87283 7.74572 6.95107C7.38386 6.99019 7.022 7.00975 6.66015 7.02931C6.49389 7.02931 6.31785 7.04887 6.15159 7.04887C5.08557 7.10755 4.02934 7.18579 2.96333 7.26403L0 7.47919V7.93885L3.00245 7.65523C3.97066 7.55743 5.09535 7.45963 6.19071 7.37161L6.99266 7.31293C7.29584 7.29337 7.5599 7.25425 7.79462 7.23469C8.40098 7.15645 8.91931 7.01953 9.36919 6.85327C9.85819 6.65767 10.3374 6.37405 10.7971 6.03176C11.2176 5.72858 11.8044 5.11244 11.8044 5.11244V4.9364C11.423 5.31782 11.198 5.53298 10.7775 5.79704C10.2885 6.11977 9.43765 6.29581 9.05623 6.51097Z" fill="white"/>
<path fill-rule="evenodd" clip-rule="evenodd" d="M9.21271 7.41072C8.75306 7.54764 8.26406 7.63566 7.67726 7.67478C7.43276 7.69434 7.18826 7.7139 6.89487 7.73346L6.09291 7.77258C4.11736 7.87038 2.16137 7.96818 0 8.07576V8.53541C2.07335 8.37893 4.07824 8.21267 6.11247 8.07576L6.91443 8.01708C7.2176 7.99752 7.4621 7.97796 7.71638 7.93884C8.32274 7.8606 8.84108 7.7628 9.29095 7.6161C9.79951 7.44006 10.2983 7.21512 10.7482 6.91194C11.0905 6.687 11.4328 6.41316 11.7946 6.10999C11.3936 6.45228 11.0122 6.53052 10.6601 6.76524C10.2005 7.03908 9.70171 7.25424 9.21271 7.41072Z" fill="white"/>
<path fill-rule="evenodd" clip-rule="evenodd" d="M9.13447 8.1736C8.67482 8.29096 8.20538 8.34964 7.59902 8.38876C7.37408 8.40832 7.1198 8.40832 6.81663 8.42788L6.03423 8.44744C4.05868 8.52568 2.04401 8.62348 0 8.69194V9.15159C2.03423 9.01467 4.03912 8.86797 6.05379 8.75061L6.83619 8.71149C7.13936 8.69193 7.38386 8.67237 7.63814 8.65281C8.2445 8.59413 8.74328 8.5159 9.21271 8.38876C9.72127 8.25184 10.2396 8.06602 10.709 7.79218C11.0709 7.59658 11.4523 7.35208 11.8337 7.06846V6.87286C11.4132 7.17604 11.0318 7.43032 10.6406 7.61614C10.1418 7.88998 9.64303 8.05624 9.13447 8.1736Z" fill="white"/>
<path fill-rule="evenodd" clip-rule="evenodd" d="M9.07579 8.93642C8.61614 9.01466 8.1467 9.07334 7.54034 9.11246C7.3154 9.13202 7.08068 9.13202 6.75795 9.13202L0 9.32762V9.78728L5.99511 9.46454L6.77751 9.42542C7.08068 9.40586 7.32518 9.3863 7.5599 9.3863C8.16626 9.34718 8.66504 9.26894 9.11491 9.17114C9.64303 9.05378 10.1418 8.90708 10.6308 8.69192C11.0122 8.51589 11.4132 8.33007 11.8044 8.07579V7.88019C11.3643 8.12469 10.9731 8.33985 10.5721 8.49633C10.0831 8.69192 9.59413 8.83862 9.07579 8.93642Z" fill="white"/>
<path fill-rule="evenodd" clip-rule="evenodd" d="M9.01712 9.70902C8.18582 9.82638 7.32518 9.84594 6.51345 9.84594C6.32763 9.84594 6.13203 9.84594 5.94621 9.8655L0 9.9633V10.423L5.94621 10.1589C6.13203 10.1589 6.32763 10.1393 6.51345 10.1393C7.34474 10.1002 8.20538 10.0611 9.05624 9.92418C9.58435 9.84594 10.1027 9.70903 10.5721 9.54277C10.9731 9.40585 11.3741 9.23959 11.7848 9.02443V8.84839C11.3447 9.06355 10.9144 9.22981 10.5134 9.34717C10.044 9.51343 9.55501 9.63079 9.01712 9.70902Z" fill="white"/>
<path fill-rule="evenodd" clip-rule="evenodd" d="M8.97801 10.4719C8.19562 10.5306 7.40344 10.5306 6.6406 10.5306C6.3961 10.5306 6.16139 10.5306 5.91689 10.5306C3.94134 10.5306 1.98535 10.5501 0.00979614 10.5697V11.0293C1.90711 10.9707 3.92178 10.8924 5.93645 10.8337C6.18095 10.8337 6.41566 10.8142 6.66016 10.8142C7.44256 10.7946 8.23474 10.7751 9.01713 10.6773C9.56481 10.6186 10.0636 10.5208 10.533 10.4132C10.9536 10.3154 11.3839 10.1687 11.8044 10.0122V9.83618C11.3643 9.99266 10.9144 10.1198 10.4939 10.2176C10.0049 10.3545 9.51591 10.4328 8.97801 10.4719Z" fill="white"/>
<path fill-rule="evenodd" clip-rule="evenodd" d="M8.94867 11.2151C8.62593 11.2347 8.26407 11.2347 7.8631 11.2347C7.70662 11.2347 7.55992 11.2347 7.40344 11.2347L5.88755 11.2151C4.84109 11.2151 3.79464 11.1956 2.8362 11.1956L0.00979614 11.2151V11.6748L2.8362 11.5965C3.80442 11.577 4.85087 11.5379 5.88755 11.5183L7.423 11.4987C7.84354 11.4987 8.39121 11.4792 8.95845 11.4401C9.50613 11.4009 10.0049 11.3423 10.4939 11.264C10.934 11.1858 11.3643 11.088 11.8044 10.9804V10.8141C11.3448 10.9315 10.8949 11.0097 10.4548 11.0586C9.98535 11.1564 9.49635 11.1956 8.94867 11.2151Z" fill="white"/>
<path fill-rule="evenodd" clip-rule="evenodd" d="M7.40342 11.9682L5.88753 11.9487C3.93154 11.9095 1.99511 11.8704 0 11.8313V12.291C1.89731 12.2714 3.89242 12.2714 5.88753 12.2323L7.40342 12.2127C7.91198 12.2127 8.43032 12.1932 8.91932 12.1736C9.96577 12.1345 10.9144 12.0562 11.7848 11.9487V11.7922C10.9144 11.89 9.96577 11.9487 8.91932 11.9487C8.41076 11.9682 7.92176 11.9682 7.40342 11.9682Z" fill="white"/>
<path fill-rule="evenodd" clip-rule="evenodd" d="M11.7946 12.8679L0 12.5648V13.0244H11.7848V12.8679H11.7946Z" fill="white"/>
<path fill-rule="evenodd" clip-rule="evenodd" d="M10.7482 4.95597C10.2885 5.31783 9.94621 5.59167 9.39853 5.79705C8.91932 5.99265 8.41076 6.06111 7.82396 6.13935C7.44254 6.19803 7.04156 6.27627 6.68949 6.29583C6.53301 6.31539 6.38631 6.31539 6.22983 6.33494L0 6.81416V7.27382L6.22983 6.65768L7.04156 6.57944C7.34474 6.54032 7.6088 6.52076 7.8533 6.48164C8.45966 6.38384 8.97799 6.23715 9.44743 6.02199C9.92665 5.80683 10.4156 5.44497 10.8753 5.06355C11.1785 4.79949 11.4817 4.46697 11.8044 4.10512V3.92908C11.4132 4.3594 11.0905 4.69191 10.7482 4.95597Z" fill="white"/>
<path fill-rule="evenodd" clip-rule="evenodd" d="M16.8215 0.995117C16.8215 0.995117 18.9438 4.39854 19.3252 5.03424C19.7066 5.66993 20.1565 6.14915 21.731 6.49145C23.3056 6.83375 23.9902 6.99023 23.9902 6.99023V7.10759C23.9902 7.10759 22.9829 6.89243 21.7115 6.60881C20.4205 6.32519 19.912 6.22739 19.3154 5.40588C18.8264 4.72128 16.8313 1.82641 16.8313 1.82641V1.0049H16.8215V0.995117Z" fill="white"/>
<path fill-rule="evenodd" clip-rule="evenodd" d="M16.8215 4.89728C16.8215 4.89728 18.7579 6.94129 19.3056 7.51831C19.8924 8.13444 20.6552 8.37894 21.7213 8.55498C22.7286 8.73102 24 8.9364 24 8.9364V9.05376C24 9.05376 22.8068 8.85816 21.7213 8.67234C20.6552 8.47674 19.9217 8.38872 19.3056 7.83126C18.7579 7.33249 16.8215 5.49385 16.8215 5.49385V4.89728Z" fill="white"/>
<path fill-rule="evenodd" clip-rule="evenodd" d="M16.8215 5.81659C16.8215 5.81659 18.6601 7.53786 19.3056 8.13444C19.912 8.67234 20.3912 8.83859 21.7213 9.07331C23.0513 9.29825 23.9804 9.45473 23.9804 9.45473V9.57209C23.9804 9.57209 22.7873 9.37649 21.7017 9.21023C20.6161 9.03419 19.9315 8.96573 19.2958 8.4474C18.5526 7.83126 16.8117 6.38383 16.8117 6.38383V5.82637H16.8215V5.81659Z" fill="white"/>
<path fill-rule="evenodd" clip-rule="evenodd" d="M16.8215 6.79462C16.8215 6.79462 18.9242 8.47677 19.3056 8.77017C19.7066 9.05379 20.2151 9.40586 21.7213 9.6308C23.2176 9.84596 23.9804 9.95354 23.9804 9.95354V10.0905C23.9804 10.0905 22.6308 9.89486 21.7213 9.78728C20.8117 9.66992 20.1271 9.61124 19.3056 9.08313C18.5037 8.54523 16.8019 7.34229 16.8019 7.34229V6.8044H16.8215V6.79462Z" fill="white"/>
<path fill-rule="evenodd" clip-rule="evenodd" d="M16.8215 7.73347C16.8215 7.73347 18.9242 9.15157 19.3252 9.37651C19.7261 9.60145 20.1956 9.97308 21.731 10.1589C23.2665 10.3545 23.9902 10.4425 23.9902 10.4425V10.5599C23.9902 10.5599 22.7188 10.423 21.731 10.3154C20.7433 10.198 20.0587 10.0709 19.3252 9.64056C18.5819 9.23959 16.8411 8.20291 16.8411 8.20291V7.72369H16.8215V7.73347Z" fill="white"/>
<path fill-rule="evenodd" clip-rule="evenodd" d="M16.8215 8.69189C16.8215 8.69189 18.6797 9.70901 19.3056 10.0317C20.0098 10.3936 20.6161 10.5501 21.7213 10.687C22.8068 10.8239 23.9804 10.9315 23.9804 10.9315V11.0489C23.9804 11.0489 22.8753 10.9315 21.7213 10.8239C20.5672 10.7066 20.1467 10.6674 19.3056 10.286C18.5623 9.94373 16.8215 9.14177 16.8215 9.14177V8.69189Z" fill="white"/>
<path fill-rule="evenodd" clip-rule="evenodd" d="M16.8215 9.65033C16.8215 9.65033 18.2787 10.286 19.3252 10.7066C20.3521 11.1075 21.1051 11.1467 21.731 11.2249C21.9951 11.264 23.9902 11.4498 23.9902 11.4498V11.5672C23.9902 11.5672 22.8166 11.4694 21.731 11.3716C20.6455 11.2738 20.1956 11.2347 19.3252 10.9511C18.4548 10.6674 16.8215 10.0904 16.8215 10.0904V9.65033Z" fill="white"/>
<path fill-rule="evenodd" clip-rule="evenodd" d="M16.8215 10.6088C16.8215 10.6088 18.2983 11.0684 19.3252 11.3325C20.3325 11.5965 21.2616 11.7139 21.731 11.7335C22.2103 11.7726 23.9902 11.9095 23.9902 11.9095V12.0269C23.9902 12.0269 22.9633 11.9486 21.731 11.8704C20.7237 11.7921 19.912 11.7139 19.3252 11.5868C18.6601 11.4303 16.8411 10.9902 16.8411 10.9902V10.6088H16.8215Z" fill="white"/>
<path fill-rule="evenodd" clip-rule="evenodd" d="M16.8215 11.577C16.8215 11.577 18.0342 11.7922 19.3252 11.9976C20.2934 12.154 21.5843 12.2616 21.731 12.2616C21.868 12.2616 23.9902 12.4181 23.9902 12.4181V12.5355C23.9902 12.5355 22.621 12.4572 21.731 12.4181C20.7824 12.3594 19.8533 12.3007 19.3252 12.2421C18.132 12.1051 16.8411 11.9584 16.8411 11.9584V11.577H16.8215Z" fill="white"/>
<path fill-rule="evenodd" clip-rule="evenodd" d="M16.8215 12.6626C16.8215 12.6626 18.7384 12.7408 19.3252 12.7408C19.912 12.7604 23.9902 12.9169 23.9902 12.9169V13.0342H16.8117V12.6626H16.8215Z" fill="white"/>
<path fill-rule="evenodd" clip-rule="evenodd" d="M21.7213 7.01955C19.9902 6.63813 19.599 6.00244 19.3056 5.60146C19.022 5.20048 16.8215 1.96332 16.8215 1.96332V2.69681C16.9193 2.81417 18.7775 5.27872 19.3056 5.9731C19.8924 6.73593 20.8215 6.91197 21.7213 7.10757C22.6112 7.30317 23.9804 7.56723 23.9804 7.56723V7.46943C24 7.47921 22.1711 7.11735 21.7213 7.01955Z" fill="white"/>
<path fill-rule="evenodd" clip-rule="evenodd" d="M21.7213 7.5183C20.2934 7.23468 19.7261 6.79458 19.3056 6.23713C18.8851 5.67967 16.8215 2.94128 16.8215 2.94128V3.62588C16.9193 3.72368 18.7971 6.00241 19.3056 6.56965C19.8924 7.25424 20.7335 7.43028 21.7213 7.62588C22.7286 7.82148 23.9804 8.04642 23.9804 8.04642V7.94862C24 7.9584 22.533 7.69434 21.7213 7.5183Z" fill="white"/>
<path fill-rule="evenodd" clip-rule="evenodd" d="M21.7213 8.0562C20.2445 7.77258 19.9413 7.5183 19.3056 6.8337C18.9046 6.39361 16.8997 3.99752 16.8215 3.89972V4.55498C16.8215 4.55498 18.6993 6.58921 19.3056 7.176C20.1076 7.9584 20.8411 8.01708 21.7213 8.17356C22.5917 8.33004 23.9804 8.5941 23.9804 8.5941V8.47674C24 8.47674 22.3081 8.17356 21.7213 8.0562Z" fill="white"/>
<path fill-rule="evenodd" clip-rule="evenodd" d="M4.90955 12.9042H15.2382V6.00049H4.90955V12.9042Z" fill="#004494" stroke="white" stroke-width="2"/>
<path fill-rule="evenodd" clip-rule="evenodd" d="M10.1897 6.9824H10.5467L10.2611 7.21418L10.3677 7.57115L10.0821 7.35697L9.79656 7.57115L9.90316 7.21418L9.61758 6.9824H9.97455L10.0812 6.62543L10.1878 6.9824H10.1897Z" fill="#FFF100"/>
<path fill-rule="evenodd" clip-rule="evenodd" d="M10.1897 11.5848H10.5467L10.2611 11.799L10.3677 12.1384L10.0821 11.9242L9.79656 12.1384L9.90316 11.799L9.61758 11.5848H9.97455L10.0812 11.2455L10.1878 11.5848H10.1897Z" fill="#FFF100"/>
<path fill-rule="evenodd" clip-rule="evenodd" d="M11.331 11.2816H11.688L11.4024 11.4958L11.509 11.8352L11.2235 11.621L10.9379 11.8352L11.0445 11.4958L10.7589 11.2816H11.1159L11.2225 10.9423L11.3291 11.2816H11.331Z" fill="#FFF100"/>
<path fill-rule="evenodd" clip-rule="evenodd" d="M11.3311 7.28553H11.688L11.4025 7.49971L11.5091 7.83908L11.2235 7.6249L10.9379 7.85668L11.0631 7.49971L10.7775 7.28553H11.1345L11.2411 6.94617L11.3301 7.28553H11.3311Z" fill="#FFF100"/>
<path fill-rule="evenodd" clip-rule="evenodd" d="M12.1868 8.1413H12.5437L12.2582 8.35548L12.3648 8.69485L12.0792 8.48067L11.7936 8.69485L11.9002 8.35548L11.6147 8.1413H11.9716L12.0782 7.80292L12.1848 8.1413H12.1868Z" fill="#FFF100"/>
<path fill-rule="evenodd" clip-rule="evenodd" d="M12.1868 10.4602H12.5437L12.2582 10.6743L12.3648 11.0137L12.0792 10.7995L11.7936 11.0137L11.9002 10.6743L11.6147 10.4602H11.9716L12.0782 10.1218L12.1848 10.4602H12.1868Z" fill="#FFF100"/>
<path fill-rule="evenodd" clip-rule="evenodd" d="M12.5086 9.28364H12.8655L12.5799 9.49782L12.6865 9.83718L12.401 9.623L12.1154 9.83718L12.222 9.49782L11.9188 9.28364H12.2758L12.3824 8.94427L12.5076 9.28364H12.5086Z" fill="#FFF100"/>
<path fill-rule="evenodd" clip-rule="evenodd" d="M9.01219 7.28557H9.36916L9.08358 7.49975L9.19019 7.83911L8.92222 7.64254L8.61904 7.85672L8.72564 7.51735L8.44006 7.30317H8.79703L8.92222 6.96381L9.01121 7.28459L9.01219 7.28557Z" fill="#FFF100"/>
<path fill-rule="evenodd" clip-rule="evenodd" d="M8.19169 8.1413H8.54866L8.26309 8.35548L8.36969 8.69485L8.08412 8.48067L7.79854 8.69485L7.90514 8.35548L7.61957 8.1413H7.97654L8.08314 7.80292L8.18974 8.1413H8.19169Z" fill="#FFF100"/>
<path fill-rule="evenodd" clip-rule="evenodd" d="M7.8885 9.28364H8.24547L7.9599 9.49782L8.0665 9.83718L7.78092 9.623L7.49535 9.83718L7.60195 9.49782L7.31638 9.28364H7.67334L7.77995 8.94427L7.88655 9.28364H7.8885Z" fill="#FFF100"/>
<path fill-rule="evenodd" clip-rule="evenodd" d="M8.19169 10.4602H8.54866L8.26309 10.6743L8.36969 11.0137L8.08412 10.7995L7.79854 11.0137L7.90514 10.6743L7.61957 10.4602H7.97654L8.08314 10.1218L8.18974 10.4602H8.19169Z" fill="#FFF100"/>
<path fill-rule="evenodd" clip-rule="evenodd" d="M9.0367 11.3129H9.39856L9.11494 11.5281L9.21274 11.8704L8.92913 11.6552L8.64551 11.8704L8.76287 11.5281L8.47925 11.3129H8.84111L8.93891 10.9706L9.0367 11.3129Z" fill="#FFF100"/>
</svg>
