<svg width="20" height="20" viewBox="0 0 20 20" fill="none" xmlns="http://www.w3.org/2000/svg">
<path d="M2.08365 10.8334H7.08365M12.917 10.8334H17.917M10.0003 5.83335V17.5M10.0003 5.83335C11.1509 5.83335 12.0836 4.90061 12.0836 3.75002M10.0003 5.83335C8.84972 5.83335 7.91698 4.90061 7.91698 3.75002M3.33365 17.5L16.667 17.5M3.33365 3.75003L7.91698 3.75002M7.91698 3.75002C7.91698 2.59943 8.84972 1.66669 10.0003 1.66669C11.1509 1.66669 12.0836 2.59943 12.0836 3.75002M12.0836 3.75002L16.667 3.75002M7.40068 11.947C7.06677 13.2255 5.93207 14.1667 4.58365 14.1667C3.23523 14.1667 2.10053 13.2255 1.76662 11.947C1.73933 11.8425 1.72569 11.7903 1.72438 11.5816C1.72357 11.4536 1.77112 11.1587 1.81208 11.0375C1.8789 10.8397 1.95124 10.7281 2.09591 10.5049L4.58365 6.66669L7.07139 10.5049C7.21606 10.7281 7.28839 10.8397 7.35522 11.0375C7.39618 11.1587 7.44373 11.4536 7.44292 11.5816C7.4416 11.7903 7.42796 11.8425 7.40068 11.947ZM18.234 11.947C17.9001 13.2255 16.7654 14.1667 15.417 14.1667C14.0686 14.1667 12.9339 13.2255 12.5999 11.947C12.5727 11.8425 12.559 11.7903 12.5577 11.5816C12.5569 11.4536 12.6044 11.1587 12.6454 11.0375C12.7122 10.8397 12.7846 10.7281 12.9292 10.5049L15.417 6.66669L17.9047 10.5049C18.0494 10.7281 18.1217 10.8397 18.1885 11.0375C18.2295 11.1587 18.2771 11.4536 18.2763 11.5816C18.2749 11.7903 18.2613 11.8425 18.234 11.947Z" stroke="#101828" stroke-width="1.33" stroke-linecap="round" stroke-linejoin="round"/>
</svg>
