<svg width="20" height="20" viewBox="0 0 20 20" fill="none" xmlns="http://www.w3.org/2000/svg">
<path d="M7.15833 11.2584L12.85 14.575M12.8417 5.42502L7.15833 8.74169M17.5 4.16669C17.5 5.5474 16.3807 6.66669 15 6.66669C13.6193 6.66669 12.5 5.5474 12.5 4.16669C12.5 2.78598 13.6193 1.66669 15 1.66669C16.3807 1.66669 17.5 2.78598 17.5 4.16669ZM7.5 10C7.5 11.3807 6.38071 12.5 5 12.5C3.61929 12.5 2.5 11.3807 2.5 10C2.5 8.61931 3.61929 7.50002 5 7.50002C6.38071 7.50002 7.5 8.61931 7.5 10ZM17.5 15.8334C17.5 17.2141 16.3807 18.3334 15 18.3334C13.6193 18.3334 12.5 17.2141 12.5 15.8334C12.5 14.4526 13.6193 13.3334 15 13.3334C16.3807 13.3334 17.5 14.4526 17.5 15.8334Z" stroke="#344054" stroke-width="1.66667" stroke-linecap="round" stroke-linejoin="round"/>
</svg>
