<svg width="20" height="20" viewBox="0 0 20 20" fill="none" xmlns="http://www.w3.org/2000/svg">
<g clip-path="url(#clip0_451_9864)">
<path d="M3.74996 18.3334V14.1667M3.74996 5.83335V1.66669M1.66663 3.75002H5.83329M1.66663 16.25H5.83329M10.8333 2.50002L9.38814 6.25741C9.15313 6.86843 9.03563 7.17394 8.8529 7.43093C8.69095 7.65869 8.49196 7.85768 8.2642 8.01963C8.00722 8.20236 7.7017 8.31986 7.09068 8.55487L3.33329 10L7.09068 11.4452C7.7017 11.6802 8.00722 11.7977 8.2642 11.9804C8.49196 12.1424 8.69095 12.3414 8.8529 12.5691C9.03563 12.8261 9.15314 13.1316 9.38815 13.7426L10.8333 17.5L12.2784 13.7426C12.5135 13.1316 12.631 12.8261 12.8137 12.5691C12.9756 12.3414 13.1746 12.1424 13.4024 11.9804C13.6594 11.7977 13.9649 11.6802 14.5759 11.4452L18.3333 10L14.5759 8.55487C13.9649 8.31986 13.6594 8.20236 13.4024 8.01963C13.1746 7.85768 12.9756 7.65869 12.8137 7.43093C12.631 7.17394 12.5135 6.86843 12.2784 6.25741L10.8333 2.50002Z" stroke="#1C5CFB" stroke-width="2" stroke-linecap="round" stroke-linejoin="round"/>
</g>
<defs>
<clipPath id="clip0_451_9864">
<rect width="20" height="20" fill="white"/>
</clipPath>
</defs>
</svg>
