<svg width="20" height="20" viewBox="0 0 20 20" fill="none" xmlns="http://www.w3.org/2000/svg">
<g clip-path="url(#clip0_451_11981)">
<path d="M3.74999 18.3334V14.1667M3.74999 5.83335V1.66669M1.66666 3.75002H5.83332M1.66666 16.25H5.83332M10.8333 2.50002L9.38817 6.25741C9.15317 6.86843 9.03566 7.17394 8.85293 7.43093C8.69098 7.65869 8.49199 7.85768 8.26423 8.01963C8.00725 8.20236 7.70173 8.31986 7.09071 8.55487L3.33332 10L7.09071 11.4452C7.70173 11.6802 8.00725 11.7977 8.26423 11.9804C8.49199 12.1424 8.69098 12.3414 8.85293 12.5691C9.03566 12.8261 9.15317 13.1316 9.38818 13.7426L10.8333 17.5L12.2785 13.7426C12.5135 13.1316 12.631 12.8261 12.8137 12.5691C12.9757 12.3414 13.1747 12.1424 13.4024 11.9804C13.6594 11.7977 13.9649 11.6802 14.5759 11.4452L18.3333 10L14.5759 8.55487C13.9649 8.31986 13.6594 8.20236 13.4024 8.01963C13.1747 7.85768 12.9757 7.65869 12.8137 7.43093C12.631 7.17394 12.5135 6.86843 12.2785 6.25741L10.8333 2.50002Z" stroke="#1C5CFB" stroke-width="2" stroke-linecap="round" stroke-linejoin="round"/>
</g>
<defs>
<clipPath id="clip0_451_11981">
<rect width="20" height="20" fill="white"/>
</clipPath>
</defs>
</svg>
